<?xml version="1.0" standalone="no"?>
<!DOCTYPE svg PUBLIC "-//W3C//DTD SVG 20010904//EN"
 "http://www.w3.org/TR/2001/REC-SVG-20010904/DTD/svg10.dtd">
<svg version="1.0" xmlns="http://www.w3.org/2000/svg"
 width="512.000000pt" height="512.000000pt" viewBox="0 0 512.000000 512.000000"
 preserveAspectRatio="xMidYMid meet">

<g transform="translate(0.000000,512.000000) scale(0.100000,-0.100000)"
fill="#000000" stroke="none">
<path d="M1755 5084 c-82 -13 -456 -70 -829 -127 -711 -109 -706 -108 -706
-156 0 -8 109 -124 241 -257 l242 -243 -63 -68 c-91 -99 -230 -289 -305 -418
-385 -663 -440 -1475 -149 -2190 290 -710 911 -1257 1648 -1450 202 -53 367
-77 546 -79 l154 -1 47 305 c26 168 50 321 53 341 l6 37 -203 5 c-208 5 -277
14 -452 62 -481 131 -879 462 -1108 920 -90 179 -140 340 -172 550 -24 152
-16 466 15 610 47 220 147 462 261 632 57 86 142 193 186 235 l29 28 239 -240
c239 -239 266 -260 294 -227 6 7 69 399 141 871 104 676 129 860 120 872 -16
19 -54 17 -235 -12z"/>
<path d="M2585 5018 c-2 -7 -24 -150 -50 -318 -25 -168 -48 -317 -51 -332 l-6
-28 164 0 c93 0 205 -6 262 -15 591 -89 1073 -438 1339 -970 91 -183 142 -346
173 -555 23 -157 15 -460 -16 -605 -64 -302 -223 -622 -411 -828 l-62 -69
-241 241 c-240 240 -267 261 -295 228 -6 -7 -69 -400 -142 -872 -119 -783
-129 -859 -115 -873 19 -19 -45 -28 1001 132 775 118 765 116 765 165 0 8
-109 124 -242 257 l-241 243 49 53 c141 149 299 381 398 582 427 870 311 1907
-298 2663 -88 108 -259 279 -371 369 -373 299 -834 487 -1314 534 -147 14
-291 13 -296 -2z"/>
</g>
</svg>
